# Blender v2.80 (sub 75) OBJ File: 'torre-com-sino-pendurado_3_cores.blend'
# www.blender.org
mtllib obj2_interior-sino.mtl
o Cube.063_Cube.074
v -2.430292 -2.410735 4.114345
v -2.430293 -2.410735 -4.043147
v 2.436945 -2.410738 4.114344
v 2.436943 -2.410738 -4.043148
v -2.268264 -0.056736 3.912933
v -2.268265 -0.056736 -3.841734
v 2.274919 -0.056737 3.912932
v 2.274918 -0.056737 -3.841735
v 2.274917 -2.224439 -3.841735
v 2.274918 -2.224439 3.912932
v -2.268265 -2.224437 3.912933
v -2.268266 -2.224437 -3.841734
v 2.436944 -0.252599 -4.043148
v 2.279383 -0.056737 -3.847286
v 2.435005 -0.221960 -4.040737
v 2.429233 -0.192075 -4.033562
v 2.419771 -0.163680 -4.021801
v 2.406853 -0.137475 -4.005742
v 2.390796 -0.114104 -3.985782
v 2.371995 -0.094144 -3.962410
v 2.350915 -0.078085 -3.936206
v 2.328073 -0.066324 -3.907811
v 2.304031 -0.059149 -3.877926
v 2.279384 -0.056737 3.918482
v 2.436946 -0.252599 4.114344
v 2.304032 -0.059149 3.949122
v 2.328074 -0.066324 3.979007
v 2.350916 -0.078085 4.007402
v 2.371997 -0.094144 4.033607
v 2.390798 -0.114104 4.056977
v 2.406854 -0.137475 4.076938
v 2.419773 -0.163680 4.092997
v 2.429234 -0.192075 4.104758
v 2.435006 -0.221960 4.111933
v -2.272729 -0.056736 3.918483
v -2.430291 -0.252597 4.114345
v -2.297377 -0.059147 3.949122
v -2.321418 -0.066322 3.979008
v -2.344260 -0.078083 4.007403
v -2.365341 -0.094142 4.033608
v -2.384142 -0.114102 4.056978
v -2.400199 -0.137473 4.076939
v -2.413118 -0.163678 4.092998
v -2.422579 -0.192073 4.104759
v -2.428351 -0.221958 4.111934
v -2.430292 -0.252597 -4.043147
v -2.272730 -0.056736 -3.847285
v -2.428352 -0.221958 -4.040736
v -2.422580 -0.192073 -4.033561
v -2.413119 -0.163678 -4.021799
v -2.400200 -0.137473 -4.005741
v -2.384143 -0.114102 -3.985781
v -2.365343 -0.094142 -3.962409
v -2.344262 -0.078083 -3.936204
v -2.321419 -0.066322 -3.907809
v -2.297378 -0.059147 -3.877925
vt 0.618827 0.741678
vt 0.618827 0.508322
vt 0.618997 0.508093
vt 0.618998 0.741907
vt 0.381173 0.741678
vt 0.381173 0.741678
vt 0.618827 0.741678
vt 0.381173 0.508322
vt 0.381003 0.741907
vt 0.381003 0.508093
vt 0.375000 0.250000
vt 0.625000 0.250000
vt 0.625000 0.479199
vt 0.375000 0.479199
vt 0.125000 0.500000
vt 0.354199 0.500000
vt 0.354199 0.750000
vt 0.125000 0.750000
vt 0.375000 0.770801
vt 0.625000 0.770801
vt 0.625000 1.000000
vt 0.375000 1.000000
vt 0.381173 0.508322
vt 0.618827 0.508322
vt 0.380064 0.506827
vt 0.619936 0.506827
vt 0.379148 0.505592
vt 0.620852 0.505592
vt 0.378277 0.504419
vt 0.621723 0.504419
vt 0.377474 0.503336
vt 0.622526 0.503336
vt 0.376758 0.500000
vt 0.623242 0.500000
vt 0.376146 0.491426
vt 0.623854 0.491426
vt 0.375654 0.488642
vt 0.624346 0.488642
vt 0.375294 0.485627
vt 0.624706 0.485627
vt 0.375074 0.482453
vt 0.624926 0.482453
vt 0.357453 0.500100
vt 0.357453 0.749900
vt 0.360627 0.500396
vt 0.360627 0.749604
vt 0.363642 0.500882
vt 0.363642 0.749118
vt 0.366426 0.501546
vt 0.366426 0.748454
vt 0.375000 0.502370
vt 0.375000 0.747630
vt 0.377474 0.746664
vt 0.378277 0.745581
vt 0.379148 0.744408
vt 0.380064 0.743173
vt 0.645801 0.500000
vt 0.645801 0.750000
vt 0.642547 0.749900
vt 0.642547 0.500100
vt 0.639373 0.749604
vt 0.639373 0.500396
vt 0.636358 0.749118
vt 0.636358 0.500882
vt 0.633574 0.748454
vt 0.633574 0.501546
vt 0.625000 0.747630
vt 0.625000 0.502370
vt 0.622526 0.746664
vt 0.621723 0.745581
vt 0.620852 0.744408
vt 0.619937 0.743173
vt 0.375074 0.767547
vt 0.624926 0.767547
vt 0.375294 0.764373
vt 0.624706 0.764373
vt 0.375654 0.761358
vt 0.624346 0.761358
vt 0.376146 0.758574
vt 0.623854 0.758574
vt 0.376758 0.750000
vt 0.623242 0.750000
vt 0.875000 0.500000
vt 0.875000 0.750000
vn 0.0000 1.0000 0.0000
vn 1.0000 -0.0000 -0.0000
vn 0.0000 -0.0000 1.0000
vn -1.0000 0.0000 0.0000
vn -0.0000 0.0000 -1.0000
vn 0.0974 0.9952 -0.0000
vn 0.2860 0.9582 -0.0000
vn 0.4578 0.8891 -0.0000
vn 0.6060 0.7955 -0.0000
vn 0.7279 0.6856 -0.0000
vn 0.8242 0.5663 -0.0000
vn 0.8969 0.4422 -0.0000
vn 0.9487 0.3161 -0.0000
vn 0.9819 0.1896 -0.0000
vn 0.9980 0.0632 -0.0000
vn 0.0000 0.0785 0.9969
vn 0.0000 0.2335 0.9724
vn 0.0000 0.3827 0.9239
vn 0.0000 0.5225 0.8526
vn 0.0000 0.6495 0.7604
vn 0.0000 0.7604 0.6495
vn 0.0000 0.8526 0.5225
vn 0.0000 0.9239 0.3827
vn 0.0000 0.9724 0.2334
vn 0.0000 0.9969 0.0785
vn -0.0000 0.0785 -0.9969
vn -0.0000 0.2335 -0.9724
vn -0.0000 0.3827 -0.9239
vn 0.0000 0.5225 -0.8526
vn 0.0000 0.6494 -0.7604
vn 0.0000 0.7604 -0.6494
vn 0.0000 0.8526 -0.5225
vn 0.0000 0.9239 -0.3827
vn 0.0000 0.9724 -0.2334
vn 0.0000 0.9969 -0.0785
vn -0.9980 0.0632 0.0000
vn -0.9819 0.1896 0.0000
vn -0.9487 0.3161 0.0000
vn -0.8969 0.4422 0.0000
vn -0.8242 0.5663 0.0000
vn -0.7279 0.6856 0.0000
vn -0.6060 0.7955 0.0000
vn -0.4578 0.8891 0.0000
vn -0.2860 0.9582 0.0000
vn -0.0974 0.9952 0.0000
vn -0.0000 -1.0000 0.0000
usemtl castanho_claro
s off
f 6/1/1 8/2/1 14/3/1 47/4/1
f 6/1/2 5/5/2 11/6/2 12/7/2
f 7/8/1 5/5/1 35/9/1 24/10/1
f 3/11/2 4/12/2 13/13/2 25/14/2
f 3/15/3 25/16/3 36/17/3 1/18/3
f 5/5/1 6/1/1 47/4/1 35/9/1
f 8/2/1 7/8/1 24/10/1 14/3/1
f 36/19/4 46/20/4 2/21/4 1/22/4
f 5/5/5 7/8/5 10/23/5 11/6/5
f 8/2/3 6/1/3 12/7/3 9/24/3
f 7/8/4 8/2/4 9/24/4 10/23/4
f 14/3/6 24/10/6 26/25/6 23/26/6
f 23/26/7 26/25/7 27/27/7 22/28/7
f 22/28/8 27/27/8 28/29/8 21/30/8
f 21/30/9 28/29/9 29/31/9 20/32/9
f 20/32/10 29/31/10 30/33/10 19/34/10
f 19/34/11 30/33/11 31/35/11 18/36/11
f 18/36/12 31/35/12 32/37/12 17/38/12
f 17/38/13 32/37/13 33/39/13 16/40/13
f 16/40/14 33/39/14 34/41/14 15/42/14
f 15/42/15 34/41/15 25/14/15 13/13/15
f 36/17/16 25/16/16 34/43/16 45/44/16
f 45/44/17 34/43/17 33/45/17 44/46/17
f 44/46/18 33/45/18 32/47/18 43/48/18
f 43/48/19 32/47/19 31/49/19 42/50/19
f 42/50/20 31/49/20 30/51/20 41/52/20
f 41/52/21 30/51/21 29/31/21 40/53/21
f 40/53/22 29/31/22 28/29/22 39/54/22
f 39/54/23 28/29/23 27/27/23 38/55/23
f 38/55/24 27/27/24 26/25/24 37/56/24
f 37/56/25 26/25/25 24/10/25 35/9/25
f 13/57/26 46/58/26 48/59/26 15/60/26
f 15/60/27 48/59/27 49/61/27 16/62/27
f 16/62/28 49/61/28 50/63/28 17/64/28
f 17/64/29 50/63/29 51/65/29 18/66/29
f 18/66/30 51/65/30 52/67/30 19/68/30
f 19/68/31 52/67/31 53/69/31 20/32/31
f 20/32/32 53/69/32 54/70/32 21/30/32
f 21/30/33 54/70/33 55/71/33 22/28/33
f 22/28/34 55/71/34 56/72/34 23/26/34
f 23/26/35 56/72/35 47/4/35 14/3/35
f 46/20/36 36/19/36 45/73/36 48/74/36
f 48/74/37 45/73/37 44/75/37 49/76/37
f 49/76/38 44/75/38 43/77/38 50/78/38
f 50/78/39 43/77/39 42/79/39 51/80/39
f 51/80/40 42/79/40 41/81/40 52/82/40
f 52/82/41 41/81/41 40/53/41 53/69/41
f 53/69/42 40/53/42 39/54/42 54/70/42
f 54/70/43 39/54/43 38/55/43 55/71/43
f 55/71/44 38/55/44 37/56/44 56/72/44
f 56/72/45 37/56/45 35/9/45 47/4/45
f 13/57/5 4/83/5 2/84/5 46/58/5
f 3/11/46 1/22/46 2/84/46 4/12/46
f 10/23/1 9/24/1 12/7/1 11/6/1
o Cube.076_Cube.081
v -2.432045 -2.427245 -4.033192
v -2.235687 -2.427245 -4.033190
v -2.235687 -0.073245 -4.033190
v -2.432045 -0.073245 -4.033192
v 0.036299 -0.073246 -6.455859
v -0.160058 -0.073245 -6.455861
vt 0.125000 0.500000
vt 0.125000 0.750000
vt 0.375000 0.750000
vt 0.375000 0.500000
vt 0.375000 0.500000
vt 0.375000 0.750000
vn 0.0000 -0.0000 -1.0000
vn 0.0000 0.7172 0.6969
vn -0.7294 0.0000 -0.6841
vn 0.7294 -0.0000 0.6841
vn -0.0000 -1.0000 -0.0000
usemtl telhado
s off
f 58/85/47 57/86/47 60/87/47 59/88/47
f 58/85/48 61/89/48 62/90/48 57/86/48
f 58/85/49 59/88/49 61/89/49
f 60/87/50 57/86/50 62/90/50
f 59/88/51 60/87/51 62/90/51 61/89/51
o Cube.077_Cube.082
v 2.440560 -0.073245 -4.033192
v 2.244202 -0.073245 -4.033190
v 2.244203 -2.427245 -4.033190
v 2.440561 -2.427245 -4.033192
v -0.027785 -0.073923 -6.455857
v 0.168573 -0.073923 -6.455859
vt 0.125000 0.500000
vt 0.125000 0.750000
vt 0.375000 0.750000
vt 0.375000 0.500000
vt 0.375000 0.500000
vt 0.375000 0.750000
vn -0.0000 -0.0000 -1.0000
vn -0.0000 -1.0000 0.0003
vn 0.7294 0.0000 -0.6841
vn -0.7294 -0.0000 0.6841
vn 0.0000 0.7173 0.6968
usemtl telhado
s off
f 64/91/52 63/92/52 66/93/52 65/94/52
f 64/91/53 67/95/53 68/96/53 63/92/53
f 64/91/54 65/94/54 67/95/54
f 66/93/55 63/92/55 68/96/55
f 65/94/56 66/93/56 68/96/56 67/95/56
o Cube.078_Cube.083
v -2.421671 -2.427248 -4.033191
v 2.433659 -2.427245 -4.033192
v -0.159092 -0.155277 -6.455857
v 0.161670 -0.155277 -6.455859
v 2.433659 -2.338998 -4.033192
v -2.421671 -2.339001 -4.033191
v 0.161670 -0.067030 -6.455859
v -0.159092 -0.067030 -6.455857
vt 0.375000 0.500000
vt 0.375000 0.500000
vt 0.375000 0.750000
vt 0.375000 0.750000
vt 0.375000 0.500000
vt 0.375000 0.750000
vt 0.375000 0.750000
vt 0.375000 0.500000
vn -0.0000 -0.7294 -0.6841
vn 0.0000 0.7294 0.6841
vn 0.7294 0.0000 -0.6841
vn 0.0000 0.0000 1.0000
vn -0.7308 0.0000 -0.6825
vn -0.0000 0.0000 -1.0000
usemtl telhado
s off
f 69/97/57 71/98/57 72/99/57 70/100/57
f 74/101/58 73/102/58 75/103/58 76/104/58
f 70/100/59 72/99/59 75/103/59 73/102/59
f 69/97/60 70/100/60 73/102/60 74/101/60
f 71/98/61 69/97/61 74/101/61 76/104/61
f 72/99/62 71/98/62 76/104/62 75/103/62
