# Blender v2.80 (sub 75) OBJ File: 'torre-com-sino-pendurado_3_cores.blend'
# www.blender.org
mtllib obj2_fora-sino.mtl
o Cube.123_Cube.129
v 1.218935 -4.869053 4.069623
v 1.218933 -4.869052 -4.087869
v 1.218938 -0.001816 4.069623
v 1.218935 -0.001816 -4.087869
v -1.135065 -4.707025 3.868211
v -1.135067 -4.707025 -3.886456
v -1.135063 -0.163842 3.868211
v -1.135065 -0.163841 -3.886456
v -1.135065 -0.001814 -4.087868
v -1.135062 -0.001815 4.069624
v -1.135065 -4.869051 4.069624
v -1.135067 -4.869051 -4.087868
v 1.032637 -0.163842 -3.886456
v 1.032639 -0.163843 3.868211
v 1.032637 -4.707026 3.868210
v 1.032635 -4.707026 -3.886456
vt 0.375000 0.000000
vt 0.625000 0.000000
vt 0.625000 0.250000
vt 0.375000 0.250000
vt 0.625000 0.500000
vt 0.375000 0.500000
vt 0.618827 0.741678
vt 0.381173 0.741678
vt 0.381173 0.741678
vt 0.618827 0.741678
vt 0.375000 0.750000
vt 0.625000 0.750000
vt 0.625000 1.000000
vt 0.375000 1.000000
vt 0.125000 0.500000
vt 0.125000 0.750000
vt 0.875000 0.500000
vt 0.875000 0.750000
vt 0.618827 0.508322
vt 0.381173 0.508322
vt 0.381173 0.508322
vt 0.618827 0.508322
vn 1.0000 -0.0000 -0.0000
vn 0.0000 1.0000 0.0000
vn -0.0000 -1.0000 0.0000
vn 0.0000 -0.0000 1.0000
vn -0.0000 0.0000 -1.0000
vn -1.0000 -0.0000 0.0000
usemtl castanho_claro
s off
f 1/1/1 2/2/1 4/3/1 3/4/1
f 3/4/2 4/3/2 9/5/2 10/6/2
f 6/7/2 5/8/2 15/9/2 16/10/2
f 11/11/3 12/12/3 2/13/3 1/14/3
f 3/15/4 10/6/4 11/11/4 1/16/4
f 9/5/5 4/17/5 2/18/5 12/12/5
f 8/19/6 7/20/6 10/6/6 9/5/6
f 7/20/6 5/8/6 11/11/6 10/6/6
f 6/7/6 8/19/6 9/5/6 12/12/6
f 5/8/6 6/7/6 12/12/6 11/11/6
f 14/21/6 13/22/6 16/10/6 15/9/6
f 5/8/5 7/20/5 14/21/5 15/9/5
f 8/19/4 6/7/4 16/10/4 13/22/4
f 7/20/3 8/19/3 13/22/3 14/21/3
o Cube.124_Cube.130
v 1.218935 -4.869054 -4.080400
v 1.218935 -4.672696 -4.080398
v -1.135065 -4.672695 -4.080397
v -1.135065 -4.869052 -4.080399
v -1.135065 -2.400709 -6.503067
v -1.135065 -2.597067 -6.503068
vt 0.125000 0.500000
vt 0.125000 0.750000
vt 0.375000 0.750000
vt 0.375000 0.500000
vt 0.375000 0.500000
vt 0.375000 0.750000
vn -0.0000 0.0000 -1.0000
vn -0.7172 -0.0000 0.6969
vn -0.0000 -0.7294 -0.6841
vn 0.0000 0.7294 0.6841
vn 1.0000 -0.0000 -0.0000
usemtl telhado
s off
f 18/23/7 17/24/7 20/25/7 19/26/7
f 18/23/8 21/27/8 22/28/8 17/24/8
f 18/23/9 19/26/9 21/27/9
f 20/25/10 17/24/10 22/28/10
f 19/26/11 20/25/11 22/28/11 21/27/11
o Cube.125_Cube.131
v -1.135065 0.003551 -4.080399
v -1.135065 -0.192807 -4.080397
v 1.218935 -0.192806 -4.080396
v 1.218935 0.003552 -4.080398
v -1.134386 -2.464792 -6.503066
v -1.134385 -2.268435 -6.503067
vt 0.125000 0.500000
vt 0.125000 0.750000
vt 0.375000 0.750000
vt 0.375000 0.500000
vt 0.375000 0.500000
vt 0.375000 0.750000
vn 0.0000 -0.0000 -1.0000
vn 1.0000 -0.0000 0.0003
vn 0.0000 0.7294 -0.6841
vn 0.0000 -0.7294 0.6841
vn -0.7173 0.0000 0.6968
usemtl telhado
s off
f 24/29/12 23/30/12 26/31/12 25/32/12
f 24/29/13 27/33/13 28/34/13 23/30/13
f 24/29/14 25/32/14 27/33/14
f 26/31/15 23/30/15 28/34/15
f 25/32/16 26/31/16 28/34/16 27/33/16
o Cube.126_Cube.132
v 1.218937 -4.858680 -4.080399
v 1.218935 -0.003350 -4.080398
v -1.053032 -2.596099 -6.503066
v -1.053032 -2.275336 -6.503067
v 1.130689 -0.003350 -4.080398
v 1.130690 -4.858680 -4.080399
v -1.141279 -2.275336 -6.503067
v -1.141279 -2.596099 -6.503066
vt 0.375000 0.500000
vt 0.375000 0.500000
vt 0.375000 0.750000
vt 0.375000 0.750000
vt 0.375000 0.500000
vt 0.375000 0.750000
vt 0.375000 0.750000
vt 0.375000 0.500000
vn 0.7294 0.0000 -0.6841
vn -0.7294 -0.0000 0.6841
vn -0.0000 0.7294 -0.6841
vn 0.0000 -0.0000 1.0000
vn 0.0000 -0.7308 -0.6825
vn 0.0000 -0.0000 -1.0000
usemtl telhado
s off
f 29/35/17 31/36/17 32/37/17 30/38/17
f 34/39/18 33/40/18 35/41/18 36/42/18
f 30/38/19 32/37/19 35/41/19 33/40/19
f 29/35/20 30/38/20 33/40/20 34/39/20
f 31/36/21 29/35/21 34/39/21 36/42/21
f 32/37/22 31/36/22 36/42/22 35/41/22
